<svg version="1.1" xmlns="http://www.w3.org/2000/svg" viewBox="0 0 794.3460068938671 122.03122400400139" width="794.3460068938671" height="122.03122400400139">
  <!-- svg-source:excalidraw -->
  
  <defs>
    <style class="style-fonts">
      @font-face {
        font-family: "Virgil";
        src: url("https://excalidraw.com/Virgil.woff2");
      }
      @font-face {
        font-family: "Cascadia";
        src: url("https://excalidraw.com/Cascadia.woff2");
      }
      @font-face {
        font-family: "Assistant";
        src: url("https://excalidraw.com/Assistant-Regular.woff2");
      }
    </style>
    
  </defs>
  <rect x="0" y="0" width="794.3460068938671" height="122.03122400400139" fill="#ffffff"></rect><g stroke-linecap="round"><g transform="translate(26.95337561578208 80.19741465090374) rotate(0 0 -11.03695643589515)"><path d="M0 0 C-0.64 -8.71, 0.05 -15.51, 0 -22.07 M0 0 C0.07 -4.61, -0.06 -9.6, 0 -22.07" stroke="#1e1e1e" stroke-width="1" fill="none"></path></g></g><mask></mask><g stroke-linecap="round"><g transform="translate(27.658557697502147 57.90914396415337) rotate(0 15.77709715407343 0)"><path d="M0 0 C6.54 0.17, 12.14 -0.75, 31.55 0 M0 0 C9.37 -0.17, 18.98 0.36, 31.55 0" stroke="#1e1e1e" stroke-width="1" fill="none"></path></g></g><mask></mask><g stroke-linecap="round"><g transform="translate(125.30960862004076 47.68451133242843) rotate(0 25.91099575004364 -0.15915344959387312)"><path d="M0 0 C8.91 -1.88, 21.28 -0.25, 51.82 -0.32 M0 0 C16.71 0.82, 33.06 0.02, 51.82 -0.32" stroke="#1e1e1e" stroke-width="1" fill="none"></path></g></g><mask></mask><g stroke-linecap="round"><g transform="translate(125.62688249959592 12.650326709260753) rotate(0 0 17.706291045965713)"><path d="M0 0 C-0.13 10.64, 0.1 21.07, 0 35.41 M0 0 C-0.33 9.78, -0.32 19.9, 0 35.41" stroke="#1e1e1e" stroke-width="1" fill="none"></path></g></g><mask></mask><g stroke-linecap="round"><g transform="translate(177.05438542253478 47.37995354312761) rotate(0 0.056405994952228866 16.510684007306963)"><path d="M0 0 C0.28 6.61, -0.2 13.73, 0.11 33.02 M0 0 C-0.36 12.96, 0.13 25.5, 0.11 33.02" stroke="#1e1e1e" stroke-width="1" fill="none"></path></g></g><mask></mask><g stroke-linecap="round"><g transform="translate(10 80.57296153253492) rotate(0 97.24198019167363 0)"><path d="M0 0 C56.73 0.36, 116.07 -0.62, 194.48 0 M0 0 C60.57 -0.8, 121.17 -1.13, 194.48 0" stroke="#1e1e1e" stroke-width="1" fill="none"></path></g><g transform="translate(10 80.57296153253492) rotate(0 97.24198019167363 0)"><path d="M196.33 1.75 L182.58 4.6 L181.69 -6.27 L195.67 -0.27" stroke="none" stroke-width="0" fill="#1e1e1e" fill-rule="evenodd"></path><path d="M194.48 0 C190.1 1.6, 187.65 2.69, 180.82 6.2 M194.48 0 C190.43 2.72, 186.44 4.4, 180.82 6.2 M180.82 6.2 C180.66 2.02, 180.9 -2.42, 180.96 -6.48 M180.82 6.2 C180.55 0.94, 180.51 -4.25, 180.96 -6.48 M180.96 -6.48 C183.85 -6.2, 186.4 -4.87, 194.48 0 M180.96 -6.48 C185.18 -5.1, 189.45 -2.97, 194.48 0 M194.48 0 C194.48 0, 194.48 0, 194.48 0 M194.48 0 C194.48 0, 194.48 0, 194.48 0" stroke="#1e1e1e" stroke-width="1" fill="none"></path></g></g><mask></mask><g stroke-linecap="round"><g transform="translate(59.21566641786785 57.97949271635298) rotate(0 0 -11.03695643589515)"><path d="M0 0 C0.82 -6.55, 0.13 -12.48, 0 -22.07 M0 0 C0.28 -8.27, -0.02 -16.64, 0 -22.07" stroke="#1e1e1e" stroke-width="1" fill="none"></path></g></g><mask></mask><g stroke-linecap="round"><g transform="translate(59.92084849958792 35.69122202960261) rotate(0 15.77709715407343 0)"><path d="M0 0 C9.18 -0.5, 19.04 0.39, 31.55 0 M0 0 C12.35 0.4, 24.76 -0.12, 31.55 0" stroke="#1e1e1e" stroke-width="1" fill="none"></path></g></g><mask></mask><g stroke-linecap="round"><g transform="translate(92.09518844734976 35.326533134043075) rotate(0 0 -11.03695643589515)"><path d="M0 0 C0.87 -4.98, 0.9 -9.94, 0 -22.07 M0 0 C0.08 -7.94, -0.14 -15.77, 0 -22.07" stroke="#1e1e1e" stroke-width="1" fill="none"></path></g></g><mask></mask><g stroke-linecap="round"><g transform="translate(92.80037052906982 13.03826244729271) rotate(0 15.77709715407343 0)"><path d="M0 0 C8.48 0.57, 15.72 -0.03, 31.55 0 M0 0 C12.43 0.06, 24.76 0.49, 31.55 0" stroke="#1e1e1e" stroke-width="1" fill="none"></path></g></g><mask></mask><g stroke-linecap="round"><g transform="translate(238.98729977234598 78.88967414350782) rotate(0 0 -11.03695643589515)"><path d="M0 0 C0.48 -7.25, 0.88 -14.36, 0 -22.07 M0 0 C-0.35 -6.01, 0.08 -12.49, 0 -22.07" stroke="#343a40" stroke-width="1" fill="none"></path></g></g><mask></mask><g stroke-linecap="round"><g transform="translate(239.69248185406605 56.98194652976463) rotate(0 36.43059624107775 0)"><path d="M0 0 C28.32 0.33, 52.59 -0.56, 72.86 0 M0 0 C22.66 0.29, 44.62 -1.08, 72.86 0" stroke="#343a40" stroke-width="1" fill="none"></path></g></g><mask></mask><g stroke-linecap="round"><g transform="translate(228.19080421568924 79.64576409814572) rotate(0 93.90016575569939 0)"><path d="M0 0 C56.57 -0.87, 113.57 -1.85, 187.8 0 M0 0 C73.9 -2.23, 148.15 -2.48, 187.8 0" stroke="#1e1e1e" stroke-width="1" fill="none"></path></g><g transform="translate(228.19080421568924 79.64576409814572) rotate(0 93.90016575569939 0)"><path d="M189.71 -1.54 L174.32 6.76 L172.93 -7.54 L189.47 0.23" stroke="none" stroke-width="0" fill="#1e1e1e" fill-rule="evenodd"></path><path d="M187.8 0 C183.6 1.38, 179.67 2.42, 174 5.87 M187.8 0 C181.97 2.18, 176.39 4.31, 174 5.87 M174 5.87 C174.02 1.98, 173.72 -0.95, 174.43 -6.8 M174 5.87 C173.82 1.12, 173.8 -3.07, 174.43 -6.8 M174.43 -6.8 C178.21 -5.56, 179.47 -2.44, 187.8 0 M174.43 -6.8 C179.49 -4.59, 185.32 -2.49, 187.8 0 M187.8 0 C187.8 0, 187.8 0, 187.8 0 M187.8 0 C187.8 0, 187.8 0, 187.8 0" stroke="#1e1e1e" stroke-width="1" fill="none"></path></g></g><mask></mask><g stroke-linecap="round"><g transform="translate(312.4960494747802 57.05229528196378) rotate(0 0 -11.03695643589515)"><path d="M0 0 C0.1 -7.77, 0.97 -13.9, 0 -22.07 M0 0 C-0.26 -9.12, -0.33 -17.67, 0 -22.07" stroke="#343a40" stroke-width="1" fill="none"></path></g></g><mask></mask><g stroke-linecap="round"><g transform="translate(312.5536743362218 34.76402459521387) rotate(0 39.02093054241607 0)"><path d="M0 0 C23.2 0.8, 44.53 -0.38, 78.04 0 M0 0 C19.69 0.36, 40.18 0.42, 78.04 0" stroke="#343a40" stroke-width="1" fill="none"></path></g></g><mask></mask><g stroke-linecap="round"><g transform="translate(459.1771275472529 77.9327701742809) rotate(0 0 -11.03695643589515)"><path d="M0 0 C0.88 -5.43, -0.48 -10.51, 0 -22.07 M0 0 C-0.28 -5.27, -0.34 -10.66, 0 -22.07" stroke="#1e1e1e" stroke-width="1" fill="none"></path></g></g><mask></mask><g stroke-linecap="round"><g transform="translate(459.8823096289725 55.64449948753099) rotate(0 15.77709715407343 0)"><path d="M0 0 C9.41 -0.56, 18.95 -0.69, 31.55 0 M0 0 C8.63 -0.18, 17.63 0.16, 31.55 0" stroke="#1e1e1e" stroke-width="1" fill="none"></path></g></g><mask></mask><g stroke-linecap="round"><g transform="translate(554.6558536199209 64.03101169729916) rotate(0 26.899047983918194 0)"><path d="M0 0 C12.25 -1.2, 26.74 -1.13, 53.8 0 M0 0 C14.82 0.51, 32.08 0.95, 53.8 0" stroke="#1e1e1e" stroke-width="1" fill="none"></path></g></g><mask></mask><g stroke-linecap="round"><g transform="translate(554.8238148092892 32.92074382868668) rotate(0 1.1368683772161603e-13 15.066628621736868)"><path d="M0 0 C-0.23 6.39, -0.17 13.41, 0 30.13 M0 0 C0.16 8.25, -0.33 15.31, 0 30.13" stroke="#1e1e1e" stroke-width="1" fill="none"></path></g></g><mask></mask><g stroke-linecap="round"><g transform="translate(447.47910966485324 78.30831705591208) rotate(0 96.04764208290737 0)"><path d="M0 0 C42.67 -0.27, 84.87 -0.43, 192.1 0 M0 0 C63.07 -2.31, 126.26 -2.32, 192.1 0" stroke="#1e1e1e" stroke-width="1" fill="none"></path></g><g transform="translate(447.47910966485324 78.30831705591208) rotate(0 96.04764208290737 0)"><path d="M192.78 -1.84 L179.76 6.55 L176.75 -7.96 L190.76 -0.44" stroke="none" stroke-width="0" fill="#1e1e1e" fill-rule="evenodd"></path><path d="M192.1 0 C188.91 -0.03, 185.38 1.19, 178.35 6 M192.1 0 C187.31 1.42, 182.57 3.4, 178.35 6 M178.35 6 C179.1 2.91, 177.7 1.43, 178.66 -6.68 M178.35 6 C178.32 0.97, 179.08 -4.25, 178.66 -6.68 M178.66 -6.68 C182.79 -3.62, 189.41 -0.67, 192.1 0 M178.66 -6.68 C182.16 -4.32, 185.7 -3.26, 192.1 0 M192.1 0 C192.1 0, 192.1 0, 192.1 0 M192.1 0 C192.1 0, 192.1 0, 192.1 0" stroke="#1e1e1e" stroke-width="1" fill="none"></path></g></g><mask></mask><g stroke-linecap="round"><g transform="translate(491.43941834933867 55.714848239730145) rotate(0 0 -11.03695643589515)"><path d="M0 0 C-0.38 -5.92, 0.31 -9.4, 0 -22.07 M0 0 C-0.28 -8.71, -0.34 -16.55, 0 -22.07" stroke="#1e1e1e" stroke-width="1" fill="none"></path></g></g><mask></mask><g stroke-linecap="round"><g transform="translate(492.1446004310583 33.426577552980234) rotate(0 31.169475823009748 0)"><path d="M0 0 C14.06 1.76, 28.39 -0.18, 62.34 0 M0 0 C12.44 0.51, 26.23 1.09, 62.34 0" stroke="#1e1e1e" stroke-width="1" fill="none"></path></g></g><mask></mask><g transform="translate(550.8371507307188 23.379759873011153) rotate(0 4.760416507720947 10)"><text x="4.760416507720947" y="0" font-family="Virgil, Segoe UI Emoji" font-size="16px" fill="#e03131" text-anchor="middle" style="white-space: pre;" direction="ltr" dominant-baseline="text-before-edge">X</text></g><g transform="translate(52.704898370074034 92.03122400400139) rotate(0 43.25 10)"><text x="43.25" y="0" font-family="Virgil, Segoe UI Emoji" font-size="16px" fill="#1e1e1e" text-anchor="middle" style="white-space: pre;" direction="ltr" dominant-baseline="text-before-edge">closed loan</text></g><g transform="translate(706.9293427703319 69.41046503856046) rotate(0 38.70833206176758 10)"><text x="38.70833206176758" y="0" font-family="Virgil, Segoe UI Emoji" font-size="16px" fill="#e03131" text-anchor="middle" style="white-space: pre;" direction="ltr" dominant-baseline="text-before-edge">liquidation</text></g><g stroke-linecap="round" transform="translate(122.52082296987146 10) rotate(0 2.6893437146576957 2.6893437146577526)"><path d="M2.64 -0.14 C3.1 -0.17, 3.46 0.18, 3.91 0.49 C4.36 0.8, 5.15 1.19, 5.33 1.75 C5.52 2.31, 5.21 3.28, 5.01 3.86 C4.81 4.44, 4.7 5.01, 4.16 5.22 C3.62 5.43, 2.41 5.26, 1.79 5.12 C1.18 4.97, 0.78 4.83, 0.45 4.35 C0.12 3.87, -0.28 2.85, -0.18 2.24 C-0.07 1.63, 0.69 1.04, 1.09 0.7 C1.49 0.35, 2.03 0.31, 2.22 0.17 C2.42 0.04, 2.23 -0.13, 2.28 -0.13 M2.58 0.2 C3.28 0.08, 4.7 0.04, 5.16 0.42 C5.62 0.8, 5.46 1.85, 5.34 2.46 C5.22 3.07, 4.83 3.6, 4.44 4.07 C4.05 4.53, 3.56 5.14, 2.99 5.24 C2.43 5.34, 1.5 4.89, 1.06 4.67 C0.63 4.45, 0.49 4.46, 0.38 3.94 C0.28 3.42, 0.22 2.11, 0.43 1.56 C0.64 1, 1.23 0.97, 1.62 0.63 C2.01 0.29, 2.51 -0.33, 2.77 -0.47 C3.03 -0.61, 3.09 -0.25, 3.16 -0.2" stroke="none" stroke-width="0" fill="#2f9e44"></path><path d="M2.4 0.29 C2.96 0.29, 4.09 0.51, 4.62 0.82 C5.16 1.12, 5.57 1.54, 5.62 2.12 C5.68 2.69, 5.32 3.71, 4.95 4.27 C4.57 4.83, 3.83 5.29, 3.36 5.5 C2.89 5.71, 2.67 5.75, 2.14 5.53 C1.6 5.32, 0.48 4.73, 0.13 4.22 C-0.21 3.72, -0.06 3.13, 0.06 2.5 C0.18 1.87, 0.48 0.88, 0.86 0.44 C1.23 0, 2 -0.02, 2.32 -0.13 C2.65 -0.24, 2.82 -0.34, 2.83 -0.22 M1.97 -0.16 C2.57 -0.29, 3.96 0.15, 4.56 0.48 C5.16 0.82, 5.43 1.32, 5.56 1.85 C5.7 2.38, 5.55 3.15, 5.34 3.64 C5.13 4.12, 4.79 4.57, 4.28 4.77 C3.77 4.98, 2.83 4.91, 2.27 4.85 C1.71 4.8, 1.36 4.89, 0.9 4.46 C0.45 4.02, -0.39 2.86, -0.47 2.24 C-0.56 1.63, -0.03 1.12, 0.38 0.76 C0.78 0.39, 1.54 0.18, 1.94 0.07 C2.34 -0.03, 2.69 0.02, 2.77 0.12" stroke="#2f9e44" stroke-width="1" fill="none"></path></g><g stroke-linecap="round" transform="translate(174.03209873523792 44.961468290549874) rotate(0 2.6893437146576957 2.6893437146577526)"><path d="M2.02 0.06 C2.53 -0.06, 3.65 -0.11, 4.16 0.2 C4.68 0.51, 4.89 1.32, 5.11 1.92 C5.33 2.52, 5.71 3.3, 5.48 3.8 C5.25 4.29, 4.29 4.61, 3.72 4.88 C3.15 5.15, 2.64 5.54, 2.08 5.41 C1.53 5.28, 0.68 4.58, 0.39 4.09 C0.1 3.61, 0.32 2.99, 0.33 2.48 C0.34 1.98, 0.16 1.5, 0.46 1.06 C0.76 0.62, 1.81 0.01, 2.14 -0.17 C2.47 -0.35, 2.36 -0.05, 2.45 -0.02 M3.6 -0.43 C4.22 -0.43, 4.46 0.34, 4.69 0.81 C4.93 1.28, 5.04 1.8, 5.01 2.38 C4.98 2.97, 4.88 3.9, 4.51 4.32 C4.15 4.75, 3.31 4.78, 2.82 4.94 C2.33 5.1, 1.95 5.55, 1.55 5.28 C1.16 5.01, 0.64 3.88, 0.47 3.33 C0.3 2.79, 0.42 2.59, 0.51 2.01 C0.6 1.44, 0.57 0.26, 1.03 -0.12 C1.48 -0.5, 2.85 -0.2, 3.24 -0.25 C3.62 -0.29, 3.35 -0.5, 3.33 -0.4" stroke="none" stroke-width="0" fill="#2f9e44"></path><path d="M2.86 0.24 C3.5 0.13, 4.26 0.18, 4.65 0.54 C5.04 0.91, 5.2 1.82, 5.21 2.44 C5.23 3.06, 4.94 3.76, 4.74 4.26 C4.53 4.77, 4.51 5.29, 3.98 5.48 C3.46 5.66, 2.18 5.56, 1.59 5.37 C1 5.17, 0.71 4.86, 0.44 4.31 C0.17 3.76, -0.04 2.69, -0.02 2.07 C0 1.44, 0.1 0.95, 0.57 0.55 C1.04 0.16, 2.48 -0.24, 2.8 -0.27 C3.12 -0.3, 2.54 0.27, 2.47 0.37 M3.31 0.07 C3.97 0.1, 4.5 0.35, 4.87 0.73 C5.25 1.1, 5.47 1.8, 5.53 2.33 C5.6 2.86, 5.59 3.49, 5.27 3.9 C4.94 4.31, 4.14 4.59, 3.59 4.82 C3.03 5.05, 2.57 5.49, 1.94 5.28 C1.3 5.06, 0.15 4.1, -0.21 3.54 C-0.57 2.98, -0.4 2.41, -0.25 1.92 C-0.1 1.42, 0.12 0.87, 0.71 0.56 C1.31 0.25, 2.94 0.07, 3.31 0.05 C3.67 0.03, 3.06 0.36, 2.9 0.43" stroke="#2f9e44" stroke-width="1" fill="none"></path></g><g transform="translate(690.199252342692 68.36679051827537) rotate(0 3.907623404717583 8.20857460346133)"><text x="3.9076234047176235" y="0" font-family="Virgil, Segoe UI Emoji" font-size="13.13371936553812px" fill="#e03131" text-anchor="middle" style="white-space: pre;" direction="ltr" dominant-baseline="text-before-edge">X</text></g><g stroke-linecap="round" transform="translate(691.7787697155759 48.83751552998069) rotate(0 2.689343714657639 2.6893437146577526)"><path d="M2.59 0.08 C3.18 0.1, 4.32 0.43, 4.74 0.76 C5.16 1.1, 5.07 1.52, 5.1 2.08 C5.14 2.64, 5.23 3.67, 4.94 4.15 C4.65 4.63, 3.87 4.82, 3.39 4.97 C2.91 5.12, 2.61 5.21, 2.06 5.08 C1.52 4.95, 0.49 4.68, 0.12 4.16 C-0.26 3.65, -0.32 2.6, -0.17 2 C-0.01 1.39, 0.5 0.9, 1.03 0.52 C1.57 0.14, 2.69 -0.14, 3.04 -0.27 C3.39 -0.4, 3.15 -0.41, 3.12 -0.26 M1.9 -0.24 C2.4 -0.35, 3.33 0.03, 3.82 0.31 C4.32 0.59, 4.61 0.82, 4.87 1.42 C5.13 2.02, 5.48 3.35, 5.39 3.9 C5.29 4.45, 4.77 4.47, 4.29 4.74 C3.82 5.02, 3.2 5.69, 2.53 5.55 C1.87 5.41, 0.71 4.42, 0.31 3.89 C-0.1 3.35, 0.01 2.93, 0.11 2.36 C0.2 1.78, 0.51 0.81, 0.87 0.44 C1.24 0.07, 2.01 0.15, 2.31 0.12 C2.62 0.1, 2.79 0.23, 2.71 0.29" stroke="none" stroke-width="0" fill="#2f9e44"></path><path d="M2.9 0.32 C3.34 0.41, 3.86 0.74, 4.32 1.16 C4.78 1.57, 5.62 2.29, 5.67 2.83 C5.71 3.38, 4.96 3.98, 4.58 4.42 C4.19 4.87, 3.86 5.43, 3.34 5.51 C2.81 5.58, 2.01 5.16, 1.43 4.85 C0.86 4.53, 0.09 4.15, -0.11 3.61 C-0.3 3.08, 0.07 2.11, 0.25 1.64 C0.44 1.16, 0.54 1.02, 0.97 0.76 C1.41 0.5, 2.45 0.24, 2.84 0.09 C3.24 -0.07, 3.31 -0.23, 3.33 -0.15 M2.91 -0.09 C3.47 -0.15, 4.38 0.04, 4.81 0.36 C5.24 0.68, 5.43 1.17, 5.52 1.81 C5.61 2.46, 5.75 3.7, 5.34 4.22 C4.94 4.73, 3.74 4.77, 3.08 4.91 C2.42 5.06, 1.91 5.23, 1.39 5.09 C0.86 4.94, 0.08 4.52, -0.07 4.04 C-0.22 3.56, 0.29 2.73, 0.47 2.21 C0.65 1.7, 0.72 1.3, 1.02 0.96 C1.31 0.62, 2.01 0.27, 2.24 0.18 C2.48 0.08, 2.42 0.3, 2.43 0.37" stroke="#2f9e44" stroke-width="1" fill="none"></path></g><g transform="translate(711.2746602337916 41.7318299084659) rotate(0 20.76041603088379 10)"><text x="20.76041603088379" y="0" font-family="Virgil, Segoe UI Emoji" font-size="16px" fill="#2f9e44" text-anchor="middle" style="white-space: pre;" direction="ltr" dominant-baseline="text-before-edge">repay</text></g><g transform="translate(709.3018547537035 18.964098148366475) rotate(0 24.59375 10)"><text x="24.59375" y="0" font-family="Virgil, Segoe UI Emoji" font-size="16px" fill="#1971c2" text-anchor="middle" style="white-space: pre;" direction="ltr" dominant-baseline="text-before-edge">borrow</text></g><g stroke-linecap="round"><g transform="translate(239.09121910086878 54.271601980151445) rotate(0 -0.07756269026356222 2.2719387799319293)" fill-rule="evenodd"><path d="M0 0 L-2.85 4.54 L2.69 4.46 L0 0" stroke="none" stroke-width="0" fill="#1971c2" fill-rule="evenodd"></path><path d="M0 0 C-0.83 1.33, -1.66 2.65, -2.85 4.54 M-2.85 4.54 C-1.63 4.53, -0.41 4.51, 2.69 4.46 M2.69 4.46 C1.99 3.3, 1.29 2.14, 0 0 M0 0 C0 0, 0 0, 0 0" stroke="#1971c2" stroke-width="1.5" fill="none" stroke-dasharray="8 9"></path></g></g><mask></mask><g stroke-linecap="round"><g transform="translate(312.90336949596986 32.189474774521386) rotate(0 -0.07756269026356222 2.2719387799319293)" fill-rule="evenodd"><path d="M0 0 L-2.85 4.54 L2.69 4.46 L0 0" stroke="none" stroke-width="0" fill="#1971c2" fill-rule="evenodd"></path><path d="M0 0 C-1.11 1.78, -2.23 3.56, -2.85 4.54 M-2.85 4.54 C-1.13 4.52, 0.59 4.49, 2.69 4.46 M2.69 4.46 C2.11 3.49, 1.52 2.52, 0 0 M0 0 C0 0, 0 0, 0 0" stroke="#1971c2" stroke-width="1.5" fill="none" stroke-dasharray="8 9"></path></g></g><mask></mask><g stroke-linecap="round"><g transform="translate(491.8536487877591 30.535623687541374) rotate(0 -0.07756269026356222 2.2719387799319293)" fill-rule="evenodd"><path d="M0 0 L-2.85 4.54 L2.69 4.46 L0 0" stroke="none" stroke-width="0" fill="#1971c2" fill-rule="evenodd"></path><path d="M0 0 C-1.12 1.78, -2.23 3.56, -2.85 4.54 M-2.85 4.54 C-1.26 4.52, 0.33 4.5, 2.69 4.46 M2.69 4.46 C1.63 2.7, 0.56 0.93, 0 0 M0 0 C0 0, 0 0, 0 0" stroke="#1971c2" stroke-width="1.5" fill="none" stroke-dasharray="8 9"></path></g></g><mask></mask><g stroke-linecap="round"><g transform="translate(459.4576781983146 52.91441916051281) rotate(0 -0.07756269026356222 2.2719387799319293)" fill-rule="evenodd"><path d="M0 0 L-2.85 4.54 L2.69 4.46 L0 0" stroke="none" stroke-width="0" fill="#1971c2" fill-rule="evenodd"></path><path d="M0 0 C-1.1 1.76, -2.21 3.52, -2.85 4.54 M-2.85 4.54 C-1.73 4.53, -0.6 4.51, 2.69 4.46 M2.69 4.46 C1.84 3.05, 0.99 1.64, 0 0 M0 0 C0 0, 0 0, 0 0" stroke="#1971c2" stroke-width="1.5" fill="none" stroke-dasharray="8 9"></path></g></g><mask></mask><g stroke-linecap="round"><g transform="translate(27.097957005792523 55.5163869569983) rotate(0 -0.07756269026361906 2.2719387799319293)" fill-rule="evenodd"><path d="M0 0 L-2.85 4.54 L2.69 4.46 L0 0" stroke="none" stroke-width="0" fill="#1971c2" fill-rule="evenodd"></path><path d="M0 0 C-0.96 1.53, -1.92 3.06, -2.85 4.54 M-2.85 4.54 C-0.95 4.52, 0.94 4.49, 2.69 4.46 M2.69 4.46 C2.09 3.46, 1.48 2.45, 0 0 M0 0 C0 0, 0 0, 0 0" stroke="#1971c2" stroke-width="1.5" fill="none" stroke-dasharray="8 9"></path></g></g><mask></mask><g stroke-linecap="round"><g transform="translate(59.34361414348996 32.699284537925905) rotate(0 -0.07756269026361906 2.2719387799319293)" fill-rule="evenodd"><path d="M0 0 L-2.85 4.54 L2.69 4.46 L0 0" stroke="none" stroke-width="0" fill="#1971c2" fill-rule="evenodd"></path><path d="M0 0 C-1.02 1.63, -2.05 3.27, -2.85 4.54 M-2.85 4.54 C-1.59 4.53, -0.33 4.51, 2.69 4.46 M2.69 4.46 C1.66 2.75, 0.63 1.04, 0 0 M0 0 C0 0, 0 0, 0 0" stroke="#1971c2" stroke-width="1.5" fill="none" stroke-dasharray="8 9"></path></g></g><mask></mask><g stroke-linecap="round"><g transform="translate(92.34355565867736 10.447895401971437) rotate(0 -0.07756269026361906 2.2719387799319293)" fill-rule="evenodd"><path d="M0 0 L-2.85 4.54 L2.69 4.46 L0 0" stroke="none" stroke-width="0" fill="#1971c2" fill-rule="evenodd"></path><path d="M0 0 C-0.65 1.03, -1.29 2.06, -2.85 4.54 M-2.85 4.54 C-1.61 4.53, -0.38 4.51, 2.69 4.46 M2.69 4.46 C1.72 2.85, 0.74 1.23, 0 0 M0 0 C0 0, 0 0, 0 0" stroke="#1971c2" stroke-width="1.5" fill="none" stroke-dasharray="8 9"></path></g></g><mask></mask><g stroke-linecap="round"><g transform="translate(693.4516443390216 24.44932230596828) rotate(0 -0.07756269026356222 2.2719387799319293)" fill-rule="evenodd"><path d="M0 0 L-2.85 4.54 L2.69 4.46 L0 0" stroke="none" stroke-width="0" fill="#1971c2" fill-rule="evenodd"></path><path d="M0 0 C-0.74 1.18, -1.48 2.36, -2.85 4.54 M-2.85 4.54 C-0.94 4.52, 0.97 4.49, 2.69 4.46 M2.69 4.46 C1.79 2.97, 0.9 1.48, 0 0 M0 0 C0 0, 0 0, 0 0" stroke="#1971c2" stroke-width="1.5" fill="none" stroke-dasharray="8 9"></path></g></g><mask></mask><g transform="translate(281.4001590834612 89.45805276035412) rotate(0 35.94791793823242 10)"><text x="35.94791793823242" y="0" font-family="Virgil, Segoe UI Emoji" font-size="16px" fill="#1e1e1e" text-anchor="middle" style="white-space: pre;" direction="ltr" dominant-baseline="text-before-edge">open loan</text></g><g transform="translate(483.04793990717303 89.45805276035412) rotate(0 57.23958206176758 10)"><text x="57.23958206176758" y="0" font-family="Virgil, Segoe UI Emoji" font-size="16px" fill="#1e1e1e" text-anchor="middle" style="white-space: pre;" direction="ltr" dominant-baseline="text-before-edge">liquidated loan</text></g></svg>